/* XPM */
static char *OrzEra[]={
"32 32 407 2",
"Qt c None",
"aF c #c0b6b6",
"aT c #c2bbbb",
"cf c #c3bebe",
"el c #c3c3c4",
"#A c #c4c4c5",
"cp c #c4c5c5",
"a3 c #c5c4c4",
"b4 c #c5c5c5",
".# c #c5c5c6",
"an c #babac0",
"aZ c #bdafaf",
"cM c #bdc0c5",
"ab c #bdc3c8",
"aR c #beb0b0",
"dT c #bebfc2",
"aB c #bfb2b2",
"aq c #bfc0c4",
"ar c #c0c3c6",
"#z c #c1c4c7",
"ax c #c2bdbd",
"#O c #c2c3c5",
"#1 c #c2c4c5",
".B c #c2c4c6",
"av c #c2c4c7",
"#b c #c3c4c5",
"#t c #c3c4c6",
"dx c #c3c5c7",
"cj c #c4c5c6",
".A c #c4c5c7",
"dz c #c5c5c5",
".l c #c5c5c6",
"eo c #979cb5",
"ap c #a2a5b7",
"en c #a3a6b8",
".3 c #a3abbf",
".2 c #a3adc1",
"es c #a7afc2",
".1 c #a7b3c6",
"cn c #a8afc0",
"ao c #acadba",
"a5 c #b28f8f",
"bh c #b49393",
"em c #b5b6be",
"et c #b5b9c4",
"bb c #b79c9c",
"cq c #b7bfc8",
"bT c #b8a1a1",
"cr c #b8c0c8",
".j c #b8c3ce",
"aI c #b9a3a3",
"co c #b9bdc5",
"a1 c #baa5a5",
"aV c #baa6a6",
"aS c #baa7a7",
".S c #bac2cb",
"br c #bba8a8",
"aN c #bba9a9",
"aM c #bcaaaa",
"a2 c #bcabab",
"a0 c #bdaeae",
"aG c #beb0b0",
"aY c #beb1b1",
"aJ c #bfb3b3",
"aU c #bfb4b4",
".a c #bfc5cb",
"bw c #c0b6b6",
"bC c #c0b7b7",
"#P c #c0c0c3",
"aH c #c1baba",
"da c #c1c3c6",
"eu c #c3c4c5",
".k c #c3c6c9",
"at c #b89f9f",
"cg c #b9a5a5",
"e. c #b9b9c0",
"c4 c #bdbec1",
"#k c #c0c0c3",
".m c #c0c5c8",
"ch c #c1baba",
"au c #c3c0c0",
"#W c #c3c4c6",
"cR c #c3c5c6",
"aA c #c4c1c1",
"cm c #949ebb",
"bS c #aa7878",
"bg c #ac7f7f",
"bt c #ad8282",
"bI c #af8787",
"bL c #b18b8b",
"aW c #b18d8d",
"c3 c #b2c2cf",
".b c #b3c5d3",
"d9 c #b5c0cc",
"bE c #b8a0a0",
"c. c #baa6a6",
"bX c #bba9a9",
"aL c #bcaaaa",
"bK c #bcabab",
"ae c #6e75a3",
"ad c #9397b1",
"aD c #a15e5e",
"aQ c #a36363",
"ai c #a7b5c6",
"bn c #a87373",
"ac c #aaabb9",
"cS c #acacb7",
"bm c #ad8181",
"cG c #adadb9",
"bA c #ae8585",
"cu c #aeaeba",
"cA c #b0bac8",
"am c #b0bfcd",
"dg c #b1c3d3",
"be c #b28f8f",
"dp c #b2bbc7",
"bU c #b39393",
"dA c #b3b4bd",
"dS c #b3c2cf",
"cY c #b5bdc8",
"cF c #b5c2cd",
"b2 c #b69b9b",
"#c c #b7bec8",
"ck c #b8b9bf",
".T c #b8bfc5",
"#j c #b8c1ca",
"aw c #b9a2a2",
"#8 c #b9bfc7",
"#V c #bac1c7",
"#9 c #bac1c8",
"#I c #bbc1c7",
"ci c #bbc3ca",
"bf c #bcabab",
"aC c #bcadad",
"bz c #bdaeae",
"dy c #bebec1",
"aj c #bec2c6",
"#d c #bfc3c6",
"az c #c0b6b6",
"dq c #c0c5cb",
"ay c #c1baba",
"e# c #787ca4",
"#l c #898cac",
".4 c #9ba4bd",
"bQ c #a26161",
"dr c #a3b6d0",
".n c #a4c0d9",
"d# c #a5b1c7",
"bP c #a87373",
"b3 c #a87474",
"ba c #aa7979",
"bN c #ac7e7e",
"a7 c #ad8181",
"bv c #af8888",
"#2 c #b1b5c1",
"#B c #b2b4bd",
"cs c #b2bfcc",
"b8 c #b39494",
"#a c #b3bfcc",
"bO c #b49595",
"b7 c #b49696",
"ce c #b49797",
"ek c #b5bdc9",
"aE c #bba7a7",
"db c #bcc3ca",
"a8 c #bdaeae",
"cB c #bdc1c7",
"cX c #6c87be",
"dB c #6f739f",
"af c #6f7aaa",
"cL c #798cbc",
"cz c #7f94c0",
"aa c #8db5db",
".U c #90b1d3",
"#i c #95b8d9",
"#u c #9bb8d4",
"#N c #9db3ca",
"as c #a3bbd2",
"ct c #a4bed5",
"cZ c #abbbd0",
".z c #b5c3d0",
"cI c #222576",
"cU c #222676",
"cV c #222677",
"cJ c #222778",
"c8 c #272e7f",
"cK c #283589",
"cW c #28368a",
"dl c #293385",
"cT c #2c327f",
"c7 c #2c3381",
"cH c #2d3480",
"c6 c #2e3783",
"dD c #2e398a",
"dE c #2e3c8f",
"dm c #2e3f93",
"c9 c #2e4296",
"dk c #2f3886",
"cw c #2f3c8b",
"cv c #313d8a",
"dF c #33489a",
"#T c #334d9a",
"dC c #343f8b",
"dX c #344493",
"dY c #344797",
"#6 c #344c99",
"dW c #354493",
"#S c #364d99",
"dZ c #384f9d",
"#5 c #3b519c",
"#G c #3b58a4",
"ec c #3c509c",
"#F c #3c55a1",
"c5 c #3d4487",
"cx c #3e4f97",
"#E c #3e57a2",
"d0 c #3e58a8",
"ed c #3f56a4",
"dV c #404a90",
"ee c #425ba8",
"#p c #4264ae",
"d1 c #435ead",
"dG c #4461ad",
"#7 c #4670b8",
"#o c #4864ab",
"ef c #4866b0",
"d2 c #4867b3",
".9 c #486bb3",
"dj c #494e8d",
"eb c #49599e",
"#4 c #4a63a7",
"d3 c #4a6ab6",
"#. c #4a73b9",
"#U c #4b77bc",
"dn c #4c68b1",
"eg c #4d6bb4",
"d4 c #4d70ba",
"#R c #4e67a9",
".P c #5078bc",
"d5 c #5176bf",
"ah c #5471b0",
".O c #547bbd",
"dh c #555b91",
"d. c #5572b7",
"#H c #5581c2",
"ea c #56619c",
"#n c #5771b1",
"cy c #586aa8",
".8 c #5879ba",
"d6 c #5880c6",
"dO c #5881c6",
"#D c #596dab",
"eh c #5b7abd",
"dP c #5b85ca",
"dH c #5c7abb",
"#q c #5d83c1",
".Q c #5e89c7",
"ag c #6071a9",
".N c #6088c6",
".7 c #6380bc",
".w c #6491cd",
".v c #6491ce",
"du c #6494d2",
".u c #6495d1",
"dN c #6589c8",
"dQ c #6593d1",
"dt c #6692cf",
".M c #678ec9",
".L c #688fc9",
"d7 c #6891cf",
".t c #689ad4",
".K c #6991ca",
"#C c #6a72a3",
".6 c #6a7db1",
".J c #6a96cf",
"de c #6b9dd5",
".s c #6ca0d9",
"eq c #6e7aa9",
".I c #6e9dd6",
"#m c #6f7aab",
"#s c #6f92c6",
"dd c #6f9bd3",
".r c #6fa4dd",
"a. c #709fd5",
"c1 c #70a0d5",
"a# c #71a4db",
"#Y c #71a5de",
".x c #729cd1",
"#L c #72aae4",
"#f c #72ace6",
"#w c #72ade6",
"ei c #7390c5",
".H c #73a8e0",
"#v c #73ace5",
"#g c #73aee7",
".G c #74ace5",
"#Z c #75ace3",
"#M c #75aee5",
".W c #75b1e9",
"er c #7682af",
"c0 c #76a1d5",
"cO c #76a2d5",
"cP c #76a7d9",
"dv c #76a8db",
".V c #76afe5",
".F c #76b0e7",
"al c #77a8da",
"#K c #77a9df",
".q c #77ade4",
".X c #77b3e9",
"## c #789ecf",
"#h c #78b1e7",
".E c #78b3ea",
"dM c #7998cc",
"#x c #79b0e5",
"df c #7aabde",
".Y c #7ab1e6",
"#Q c #7b82ab",
"ak c #7ba0cc",
"dU c #7d81a6",
"dR c #7da8d6",
"cl c #7e88b0",
"do c #7e96c3",
".p c #7eb3e5",
".5 c #7f8cb4",
"#3 c #7f91bd",
"#r c #7f94be",
"ds c #7fa1d0",
"di c #8087aa",
"dI c #8197c4",
"#e c #81adda",
"c2 c #81b1df",
".D c #81b6e6",
"cD c #82a9d2",
"ep c #848cb0",
"#X c #84add8",
"cE c #84b2dd",
".Z c #86acd6",
".R c #88abd3",
"dJ c #8ca0c7",
"dL c #8ea2c8",
".y c #8eafd5",
".f c #8eb9e1",
".o c #8ebbe3",
"dK c #8fa4c9",
"cC c #8fadd2",
"bM c #913232",
".e c #91bce3",
"d8 c #92aed3",
".g c #92bae0",
"ej c #93a8ca",
"dc c #93afd3",
"cQ c #93b9db",
"#0 c #96b6d6",
".0 c #97afcc",
"by c #984444",
"bx c #994848",
"bF c #9a4a4a",
"bH c #9a4c4c",
"#y c #9ab8d4",
"bB c #9b4e4e",
"bc c #9b4f4f",
".d c #9bbfe0",
"cN c #9cb4d1",
"aO c #9d5252",
".h c #9dbcdb",
"bD c #9f5a5a",
"bJ c #a15f5f",
".C c #a1bbd4",
"dw c #a1bed8",
"a9 c #a26161",
"bG c #a26262",
"bd c #a36464",
"aK c #a36565",
"bu c #a56969",
"b. c #a56a6a",
"bi c #a56c6c",
"bR c #a66c6c",
"#J c #a7bacf",
".c c #a7c3db",
"bk c #a87171",
"bo c #a87373",
".i c #a8c0d7",
"aP c #a97575",
"bq c #a97777",
"bp c #aa7979",
"a6 c #aa7a7a",
"cd c #ab7c7c",
"bs c #ac7d7d",
"a4 c #ad8080",
"b9 c #ad8181",
"aX c #ae8282",
"ca c #ae8585",
"cc c #af8686",
"b5 c #af8888",
"bj c #b08989",
"cb c #b08a8a",
"b6 c #b18c8c",
"bY c #b28e8e",
"bW c #b28f8f",
"bl c #b29090",
"b1 c #b29191",
"b0 c #b49595",
"b# c #b79d9d",
"c# c #b79f9f",
"bV c #baa7a7",
"bZ c #bcaaaa",
"QtQtQtQtQtQtQtQtQtQtQtQtQtQtQtQtQtQtQtQtQtQtQtQtQtQtQtQtQtQtQtQt",
"QtQtQtQtQtQtQtQtQtQtQtQtQtQtQtQtQtQtQtQtQtQtQtQtQtQtQtQtQtQtQtQt",
"QtQtQtQtQtQtQtQtQtQt.#.a.b.c.d.e.f.g.h.i.j.k.lQtQtQtQtQtQtQtQtQt",
"QtQtQtQtQtQtQtQtQt.m.n.o.p.q.r.s.t.u.v.w.x.y.z.AQtQtQtQtQtQtQtQt",
"QtQtQtQtQtQtQt.B.C.D.E.F.G.H.I.J.K.L.M.N.O.P.Q.R.S.#QtQtQtQtQtQt",
"QtQtQtQtQtQt.T.U.V.W.X.Y.Z.0.1.2.3.4.5.6.7.8.9#.###a#b#cQtQtQtQt",
"QtQtQtQtQt#d#e#f#g#h#i#jQtQtQtQtQtQtQt#k#l#m#n#o#p#q#r#s#tQtQtQt",
"QtQtQtQt.B#u#v#w#x#y#zQtQtQtQtQtQtQtQtQt#A#B#C#D#E#F#G#H#IQtQtQt",
"QtQtQtQt#J#K#L#M#N#OQtQtQtQtQtQtQtQtQtQtQtQt#P#Q#R#S#T#U#VQtQtQt",
"QtQtQt#W#X#Y#Z#0#1QtQtQtQtQtQtQtQtQtQtQtQtQt#2#3#4#5#6#7#8QtQtQt",
"QtQtQt#9a.a#aaabQtQtQtQtQtQtQtQtQtQtQtQtQtQtacadaeafagahaiQtQtQt",
"QtQtQtajakalamQtQtQtQtQtQtQtQtQtQtQtQtQtQtQtQtQtQtanaoapaqQtQtQt",
"QtQtQtQtarasQtQtQtQtQtQtQtQtQtQtQtQtQtQtQtQtQtQtQtQtQtQtQtQtQtQt",
"QtatauQtQtavQtQtawaxQtQtQtQtayazaAQtQtQtQtQtaBaCQtQtQtQtQtQtQtQt",
"QtaDaEaFaGaHaIaJaKaLaMaNaFaFaOaPaQaRaSaTaUaVaWaXaYaGaBaZa0a1a2a3",
"QtaDa4a5a6aPa7a8a9b.b#aKbabbbcbdbebfbgbhbib#bjbkaPblbmbnbobpbqbr",
"QtaDbsbtbuaKbvbwbxbybzbAbBbCbDbEbFbGbHbIbJbKbLbMbNbObPbQbRbSaPbT",
"QtbUbVblbWbXbYbZb0b1b2b2b3b4b5b6b7b8b9b#bEb0c.c#cabKcbcccdbdcecf",
"QtQtQtQtQtQtQtQtQtQtQtcgchQtQtQtQtQtQtQtQtQtQtQtQtQtQtQtaRaRQtQt",
"QtQtQtQtQtQtQtQtQtQtQtQtQtQtQtQtQtQtQtQtQtQtQtQtQtQtQtQtcicjQtQt",
"QtQtQtckclcmcnco#bQtQtQtQtQtQtQtQtQtQtQtQtQtQtQtcpcqcrcsctcjQtQt",
"QtQtQtcucvcwcxcyczcAQtQtQtQtQtQtQtQtQtQtQtQtQtQtcBcCcDcEcFQtQtQt",
"QtQtQtcGcHcIcJcKcLcMQtQtQtQtQtQtQtQtQtQtQtQtQtcjcNcOcPcQcRQtQtQt",
"QtQtQtcScTcUcVcWcXcYQtQtQtQtQtQtQtQtQtQtQtQtcjcZc0c1c2c3QtQtQtQt",
"QtQtQtc4c5c6c7c8c9d.d#daQtQtQtQtQtQtQtQt.#dbdcdddedfdgQtQtQtQtQt",
"QtQtQtQtdhdidjdkdldmdndodp#tQtQtQtQt.ldqdrdsdtdudvdwdxQtQtQtQtQt",
"QtQtQtQtdydzdAdBdCdDdEdFdGdHdIdJdKdLdMdNdOdPdQdRdS.lQtQtQtQtQtQt",
"QtQtQtQtQtQtQtdTdUdVdWdXdYdZd0d1d2d3d4d5d6d7d8d9QtQtQtQtQtQtQtQt",
"QtQtQtQtQtQtQtQtQte.e#eaebecedeeefegeheiejekQtQtQtQtQtQtQtQtQtQt",
"QtQtQtQtQtQtQtQtQtQtelemeneoepeqercmeseteub4QtQtQtQtQtQtQtQtQtQt",
"QtQtQtQtQtQtQtQtQtQtQtQtQtQtQtQtQtQtQtQtQtQtQtQtQtQtQtQtQtQtQtQt",
"QtQtQtQtQtQtQtQtQtQtQtQtQtQtQtQtQtQtQtQtQtQtQtQtQtQtQtQtQtQtQtQt"};
